# xmcd CD database file
#
# Track frame offsets:
#	150
#	29094
#	56118
#	85166
#	108080
#	133851
#	153588
#	173802
#	198513
#	222411
#
# Disc length: 3340 seconds
#
# Revision: 0
# Processed by: cddbd v1.5.2PL0 Copyright (c) Steve Scherf et al.
# Submitted via: CDex 1.70beta2
#
DISCID=910d0a0a
DTITLE=Chet Baker - Zing!
DYEAR=1954
DGENRE=Jazz
TTITLE0=A Dandy Live (Montrose)
TTITLE1=Zing! Went The Strings Of My Heart (Hanley)
TTITLE2=Frenes (iDominguez/Charles/Russell)
TTITLE3=Moonlight in Vermont (Suessdorf/Blackburn)
TTITLE4=My Old Flame (Johnston/Coslow)
TTITLE5=The Wind (Freeman)
TTITLE6=Lullaby Of The Leaves (Petkere/Young)
TTITLE7=Line For Lions (Mulligan)
TTITLE8=Everything Happens To Me (Carmickael/Mercer)
TTITLE9=My Little Red Suede Shoes (Parker)
EXTD=YEAR: 1954
EXTT0=
EXTT1=
EXTT2=
EXTT3=
EXTT4=
EXTT5=
EXTT6=
EXTT7=
EXTT8=
EXTT9=
PLAYORDER=
